<svg width="111" height="25" viewBox="0 0 111 25" fill="none" xmlns="http://www.w3.org/2000/svg">
<g clip-path="url(#clip0_59_176)">
<path d="M12.5 2.25208C15.8375 2.25208 16.2333 2.26458 17.551 2.325C18.9135 2.3875 20.3167 2.69792 21.3094 3.69062C22.3115 4.69271 22.6125 6.08229 22.675 7.44896C22.7354 8.76667 22.7479 9.1625 22.7479 12.5C22.7479 15.8375 22.7354 16.2333 22.675 17.551C22.6135 18.9062 22.2958 20.3229 21.3094 21.3094C20.3073 22.3115 18.9188 22.6125 17.551 22.675C16.2333 22.7354 15.8375 22.7479 12.5 22.7479C9.1625 22.7479 8.76667 22.7354 7.44896 22.675C6.10417 22.6135 4.66875 22.2885 3.69062 21.3094C2.69375 20.3125 2.3875 18.9094 2.325 17.551C2.26458 16.2333 2.25208 15.8375 2.25208 12.5C2.25208 9.1625 2.26458 8.76667 2.325 7.44896C2.38646 6.09896 2.70729 4.67396 3.69062 3.69062C4.69062 2.69062 6.08542 2.3875 7.44896 2.325C8.76667 2.26458 9.1625 2.25208 12.5 2.25208ZM12.5 0C9.10521 0 8.67917 0.0145833 7.34583 0.075C5.41354 0.163542 3.49479 0.701042 2.09792 2.09792C0.695833 3.5 0.163542 5.41458 0.075 7.34583C0.0145833 8.67917 0 9.10521 0 12.5C0 15.8948 0.0145833 16.3208 0.075 17.6542C0.163542 19.5844 0.703125 21.5083 2.09792 22.9021C3.49896 24.3031 5.41667 24.8365 7.34583 24.925C8.67917 24.9854 9.10521 25 12.5 25C15.8948 25 16.3208 24.9854 17.6542 24.925C19.5854 24.8365 21.5062 24.2979 22.9021 22.9021C24.3052 21.499 24.8365 19.5854 24.925 17.6542C24.9854 16.3208 25 15.8948 25 12.5C25 9.10521 24.9854 8.67917 24.925 7.34583C24.8365 5.41354 24.2979 3.49375 22.9021 2.09792C21.5031 0.698958 19.5802 0.1625 17.6542 0.075C16.3208 0.0145833 15.8948 0 12.5 0Z" fill="white"/>
<path d="M12.4998 6.08105C8.95501 6.08105 6.08105 8.95501 6.08105 12.4998C6.08105 16.0446 8.95501 18.9186 12.4998 18.9186C16.0446 18.9186 18.9186 16.0446 18.9186 12.4998C18.9186 8.95501 16.0446 6.08105 12.4998 6.08105ZM12.4998 16.6665C10.1988 16.6665 8.33314 14.8008 8.33314 12.4998C8.33314 10.1988 10.1988 8.33314 12.4998 8.33314C14.8008 8.33314 16.6665 10.1988 16.6665 12.4998C16.6665 14.8008 14.8008 16.6665 12.4998 16.6665Z" fill="white"/>
<path d="M19.1729 7.32715C20.0013 7.32715 20.6729 6.65558 20.6729 5.82715C20.6729 4.99872 20.0013 4.32715 19.1729 4.32715C18.3444 4.32715 17.6729 4.99872 17.6729 5.82715C17.6729 6.65558 18.3444 7.32715 19.1729 7.32715Z" fill="white"/>
</g>
<g clip-path="url(#clip1_59_176)">
<path d="M66.4011 10.2771C64.1729 10.2771 62.1073 9.56458 60.4219 8.35417V17.0885C60.4219 21.451 56.8729 24.999 52.5115 24.999C50.8261 24.999 49.2625 24.4677 47.9782 23.5656C45.9386 22.1333 44.6011 19.7646 44.6011 17.0885C44.6011 12.726 48.15 9.17708 52.5125 9.17708C52.875 9.17708 53.2292 9.20729 53.5782 9.25417V10.2719V13.6417C53.2407 13.5365 52.8844 13.475 52.5125 13.475C50.5209 13.475 48.9 15.0958 48.9 17.0885C48.9 18.476 49.6875 19.6813 50.8375 20.2865C51.3386 20.55 51.9084 20.701 52.5136 20.701C54.4594 20.701 56.0469 19.1531 56.1198 17.224L56.1229 0H60.4209C60.4209 0.372917 60.4573 0.736458 60.5219 1.09063C60.825 2.72813 61.7969 4.13333 63.1438 5.01146C64.0813 5.62292 65.2 5.98021 66.4 5.98021L66.4011 10.2771Z" fill="white"/>
</g>
<g clip-path="url(#clip2_59_176)">
<path d="M98.5 0C91.5969 0 86 5.59687 86 12.5C86 19.4042 91.5969 25 98.5 25C105.404 25 111 19.4042 111 12.5C111 5.59687 105.404 0 98.5 0ZM104.232 18.0292C104.007 18.3979 103.528 18.5125 103.161 18.2885C100.226 16.4948 96.5312 16.0896 92.1802 17.0833C91.7604 17.1792 91.3427 16.9167 91.2469 16.4979C91.151 16.0792 91.4125 15.6604 91.8333 15.5656C96.5948 14.4771 100.679 14.9458 103.974 16.9594C104.342 17.1823 104.457 17.6625 104.232 18.0292ZM105.762 14.626C105.48 15.0844 104.88 15.2281 104.422 14.9469C101.062 12.8823 95.9406 12.2833 91.9656 13.4906C91.451 13.6458 90.9062 13.3552 90.75 12.8406C90.5948 12.325 90.8854 11.7823 91.4 11.625C95.9396 10.2469 101.583 10.9146 105.442 13.2854C105.9 13.5677 106.044 14.1677 105.762 14.626ZM105.894 11.0812C101.865 8.68854 95.2188 8.46875 91.3719 9.63646C90.7542 9.82396 90.101 9.475 89.9135 8.85729C89.726 8.23958 90.075 7.58646 90.6927 7.39896C95.1083 6.05833 102.448 6.31771 107.086 9.07083C107.642 9.40104 107.824 10.1177 107.495 10.6729C107.167 11.2281 106.448 11.4115 105.894 11.0812Z" fill="white"/>
</g>
<defs>
<clipPath id="clip0_59_176">
<rect width="25" height="25" fill="white"/>
</clipPath>
<clipPath id="clip1_59_176">
<rect width="25" height="25" fill="white" transform="translate(43)"/>
</clipPath>
<clipPath id="clip2_59_176">
<rect width="25" height="25" fill="white" transform="translate(86)"/>
</clipPath>
</defs>
</svg>
